<svg width="64" height="64" xmlns="http://www.w3.org/2000/svg">

 <g>
  <title>background</title>
  <rect fill="none" id="canvas_background" height="402" width="582" y="-1" x="-1"/>
 </g>
 <g>
  <title>Layer 1</title>
  <circle id="svg_1" r="32" fill="#4285f4" cy="32" cx="32"/>
  <path opacity="0.2" id="svg_3" fill="#231F20" d="m33.866,12.197c-0.275,-0.132 -0.571,-0.197 -0.866,-0.197c-0.446,0 -0.888,0.149 -1.25,0.438l-14.452,11.562l-5.298,0c-1.105,0 -2,0.895 -2,2l0,16c0,1.105 0.895,2 2,2l5.298,0l14.452,11.562c0.362,0.289 0.804,0.438 1.25,0.438c0.294,0 0.59,-0.065 0.866,-0.197c0.693,-0.333 1.134,-1.034 1.134,-1.803l0,-40c0,-0.769 -0.441,-1.47 -1.134,-1.803z"/>
  <path opacity="0.2" id="svg_4" fill="#231F20" d="m38.036,36.833c-0.672,0.485 -0.824,1.422 -0.339,2.094c0.293,0.407 0.752,0.623 1.218,0.623c0.304,0 0.61,-0.092 0.876,-0.283c1.697,-1.224 2.71,-3.192 2.71,-5.266s-1.013,-4.042 -2.71,-5.266c-0.672,-0.484 -1.609,-0.332 -2.094,0.339c-0.484,0.672 -0.333,1.609 0.339,2.094c0.93,0.67 1.464,1.703 1.464,2.832s-0.534,2.162 -1.464,2.833z"/>
  <path opacity="0.2" id="svg_5" fill="#231F20" d="m38.516,43.151c-0.799,0.219 -1.269,1.044 -1.049,1.843c0.183,0.666 0.787,1.104 1.445,1.104c0.131,0 0.265,-0.017 0.398,-0.054c5.411,-1.485 9.19,-6.438 9.19,-12.044s-3.779,-10.559 -9.19,-12.044c-0.797,-0.219 -1.624,0.25 -1.843,1.049c-0.22,0.799 0.25,1.624 1.049,1.843c4.112,1.13 6.984,4.893 6.984,9.152s-2.872,8.022 -6.984,9.151z"/>
  <path opacity="0.2" id="svg_6" fill="#231F20" d="m39.169,15.789c-0.821,-0.145 -1.593,0.406 -1.734,1.222c-0.141,0.816 0.406,1.593 1.222,1.734c7.442,1.288 12.843,7.703 12.843,15.255s-5.401,13.967 -12.843,15.255c-0.816,0.141 -1.363,0.917 -1.222,1.734c0.126,0.729 0.76,1.244 1.476,1.244c0.085,0 0.171,-0.007 0.258,-0.022c8.883,-1.537 15.331,-9.196 15.331,-18.211s-6.448,-16.674 -15.331,-18.211z"/>
  <path id="svg_7" fill="#ffffff" d="m31,40c0,1.105 -0.895,2 -2,2l-17,0c-1.105,0 -2,-0.895 -2,-2l0,-16c0,-1.105 0.895,-2 2,-2l17,0c1.105,0 2,0.895 2,2l0,16z"/>
  <path stroke="#000000" stroke-opacity="0" id="svg_9" fill="#ffffff" d="m33,53c-0.223,0 -0.444,-0.075 -0.625,-0.219l-15,-12c-0.237,-0.19 -0.375,-0.477 -0.375,-0.781l0,-16c0,-0.304 0.138,-0.591 0.375,-0.781l15,-12c0.181,-0.144 0.402,-0.219 0.625,-0.219c0.147,0 0.295,0.033 0.433,0.099c0.347,0.166 0.567,0.517 0.567,0.901l0,40c0,0.384 -0.22,0.735 -0.567,0.901c-0.138,0.066 -0.286,0.099 -0.433,0.099z"/>
  <path id="svg_10" fill="#ffffff" d="m33,12l0,40l-15,-12l0,-16l15,-12m0,-2c-0.446,0 -0.888,0.149 -1.25,0.438l-15,12c-0.474,0.38 -0.75,0.954 -0.75,1.562l0,16c0,0.607 0.276,1.182 0.751,1.562l15,12c0.361,0.289 0.803,0.438 1.249,0.438c0.294,0 0.59,-0.065 0.866,-0.197c0.693,-0.333 1.134,-1.034 1.134,-1.803l0,-40c0,-0.769 -0.441,-1.469 -1.134,-1.803c-0.275,-0.132 -0.571,-0.197 -0.866,-0.197l0,0z"/>
  <path id="svg_11" stroke-width="3" stroke-miterlimit="10" stroke-linecap="round" stroke="#FFFFFF" fill="none" d="m38.913,36.049c1.259,-0.908 2.087,-2.378 2.087,-4.049s-0.828,-3.141 -2.087,-4.049"/>
  <path id="svg_12" stroke-width="3" stroke-miterlimit="10" stroke-linecap="round" stroke="#E0E0D1" fill="none" d="m38.913,42.597c4.659,-1.278 8.087,-5.532 8.087,-10.597s-3.428,-9.319 -8.087,-10.597"/>
  <path id="svg_13" stroke-width="3" stroke-miterlimit="10" stroke-linecap="round" stroke="#ffffff" fill="none" d="m38.913,48.733c7.998,-1.384 14.087,-8.339 14.087,-16.733s-6.089,-15.349 -14.087,-16.733"/>
 </g>
</svg>